<mxfile host="app.diagrams.net" modified="2024-04-22T17:27:21.346Z" agent="Mozilla/5.0 (Windows NT 10.0; WOW64) AppleWebKit/537.36 (KHTML, like Gecko) Chrome/96.0.4664.110 YaBrowser/22.1.0.2510 Yowser/2.5 Safari/537.36" etag="sagAMYaIRrOcwvW8ukkG" version="24.2.8" type="github">
  <diagram name="Страница — 1" id="T17Crk3AObRxLtV4Jqa8">
    <mxGraphModel dx="2074" dy="1127" grid="1" gridSize="10" guides="1" tooltips="1" connect="1" arrows="1" fold="1" page="1" pageScale="1" pageWidth="827" pageHeight="1169" math="0" shadow="0">
      <root>
        <mxCell id="0" />
        <mxCell id="1" parent="0" />
        <mxCell id="U-bjwP35zErADgLvmT5O-1" value="Алгоритмы" style="rounded=0;whiteSpace=wrap;html=1;" vertex="1" parent="1">
          <mxGeometry x="120" y="200" width="120" height="20" as="geometry" />
        </mxCell>
      </root>
    </mxGraphModel>
  </diagram>
</mxfile>
